<?xml version="1.0" encoding="utf-8"?>
<!-- Generator: Adobe Illustrator 16.0.0, SVG Export Plug-In . SVG Version: 6.00 Build 0)  -->
<!DOCTYPE svg PUBLIC "-//W3C//DTD SVG 1.1//EN" "http://www.w3.org/Graphics/SVG/1.1/DTD/svg11.dtd">
<svg version="1.1" id="Layer_1" xmlns="http://www.w3.org/2000/svg" xmlns:xlink="http://www.w3.org/1999/xlink" x="0px" y="0px"
	 width="255.526px" height="254.5px" viewBox="697.5 1 255.526 254.5" enable-background="new 697.5 1 255.526 254.5"
	 xml:space="preserve">
<g>
	<path fill="#798D93" d="M814.764,108.499c0,5.323-3.746,9.751-8.848,9.751h-88.877c-5.098,0-9.275-4.428-9.275-9.751V20.434
		c0-5.324,4.18-9.184,9.275-9.184h88.877c5.102,0,8.848,3.86,8.848,9.184V108.499z"/>
	<path fill="#798D93" d="M949.764,242.73c0,5.258-4.264,9.52-9.521,9.52h-88.959c-5.258,0-9.521-4.262-9.521-9.52V153.77
		c0-5.258,4.264-9.52,9.521-9.52h88.959c5.258,0,9.521,4.262,9.521,9.52V242.73z"/>
	<path fill="#F2F2F2" d="M808.764,101.97c0,5.314-4.355,10.28-9.533,10.28h-88.594c-5.178,0-9.873-4.966-9.873-10.28V13.872
		c0-5.314,4.695-9.622,9.873-9.622h88.596c5.176,0,9.531,4.308,9.531,9.622V101.97z"/>
	<path fill="#F2F2F2" d="M943.764,236.73c0,5.258-4.262,9.52-9.52,9.52h-88.961c-5.258,0-9.52-4.262-9.52-9.52V147.77
		c0-5.258,4.262-9.52,9.52-9.52h88.961c5.258,0,9.52,4.262,9.52,9.52V236.73L943.764,236.73z"/>
	<g>
		<path fill="#46AACC" d="M759.492,16.549l-1.297,12.712c8.383,0.846,15.258,6.796,17.469,14.695l12.303-3.454
			C784.359,27.627,773.156,17.929,759.492,16.549z"/>
		<g>
			<path fill="#46AACC" d="M770.391,51.258c0.488,1.744,0.75,3.583,0.75,5.481c0,11.201-9.08,20.281-20.281,20.281
				c-11.197,0-20.279-9.08-20.279-20.281c0-11.2,9.082-20.28,20.279-20.28c0.697,0,1.383,0.036,2.061,0.104l1.301-12.711
				c-1.105-0.112-2.227-0.168-3.359-0.168c-18.258,0-33.059,14.799-33.059,33.056c0,18.258,14.801,33.058,33.059,33.058
				s33.057-14.8,33.057-33.058c0-3.097-0.426-6.093-1.223-8.936L770.391,51.258z"/>
		</g>
	</g>
	<g>
		<rect x="844.764" y="161.25" fill="#46AACC" width="19" height="53"/>
		<rect x="866.764" y="158.25" fill="#46AACC" width="19" height="36"/>
		<rect x="889.764" y="166.25" fill="#46AACC" width="17" height="45"/>
		<rect x="910.764" y="173.25" fill="#46AACC" width="18" height="31"/>
		<g>
			<path fill="#46AACC" d="M854.264,222.292c-0.547,0-0.5-0.442-0.5-0.987v-66.951c0-0.547-0.047-0.985,0.5-0.985
				c0.543,0,0.5,0.438,0.5,0.985v66.951C854.764,221.85,854.807,222.292,854.264,222.292z"/>
		</g>
		<g>
			<path fill="#46AACC" d="M876.264,203.531c-0.547,0-1.5-0.442-1.5-0.988v-53.721c0-0.545,0.953-0.987,1.5-0.987
				s1.5,0.442,1.5,0.987v53.721C877.764,203.089,876.811,203.531,876.264,203.531z"/>
		</g>
		<g>
			<path fill="#46AACC" d="M897.764,222.688c-0.545,0-1-0.439-1-0.985V154.75c0-0.545,0.455-0.986,1-0.986c0.547,0,1,0.441,1,0.986
				v66.952C898.764,222.246,898.311,222.688,897.764,222.688z"/>
		</g>
		<g>
			<path fill="#46AACC" d="M919.264,215.381c-0.543,0-0.5-0.443-0.5-0.986V161.66c0-0.545-0.043-0.986,0.5-0.986
				c0.547,0,0.5,0.441,0.5,0.986v52.732C919.764,214.938,919.811,215.381,919.264,215.381z"/>
		</g>
	</g>
	<g>
		<g>
			<path fill="#386A87" d="M759.492,16.549l-1.297,12.712c8.383,0.846,15.258,6.796,17.469,14.695l12.303-3.454
				C784.359,27.627,773.156,17.929,759.492,16.549z"/>
			<g>
				<path fill="#386A87" d="M770.391,51.258c0.488,1.744,0.75,3.583,0.75,5.481c0,11.201-9.08,20.281-20.281,20.281
					c-11.197,0-20.279-9.08-20.279-20.281c0-11.2,9.082-20.28,20.279-20.28c0.697,0,1.383,0.036,2.061,0.104l1.301-12.711
					c-1.105-0.112-2.227-0.168-3.359-0.168c-18.258,0-33.059,14.799-33.059,33.056c0,18.258,14.801,33.058,33.059,33.058
					s33.057-14.8,33.057-33.058c0-3.097-0.426-6.093-1.223-8.936L770.391,51.258z"/>
			</g>
		</g>
	</g>
	<g>
		<path fill="#386A87" d="M920.764,173.25v-11.59c0-0.545-0.953-0.986-1.5-0.986c-0.543,0-1.5,0.441-1.5,0.986v11.59h-7v31h7v10.145
			c0,0.543,0.957,0.986,1.5,0.986c0.547,0,1.5-0.443,1.5-0.988V204.25h8v-31H920.764z"/>
		<path fill="#386A87" d="M855.764,154.354c0-0.547-0.957-0.985-1.5-0.985c-0.547,0-1.5,0.438-1.5,0.985v6.896h-8v53h8v7.055
			c0,0.545,0.953,0.987,1.5,0.987c0.543,0,1.5-0.442,1.5-0.987v-7.055h8v-53h-8V154.354z"/>
		<path fill="#386A87" d="M877.764,148.822c0-0.545-0.953-0.987-1.5-0.987s-1.5,0.442-1.5,0.987v9.428h-8v36h8v8.293
			c0,0.546,0.953,0.988,1.5,0.988s1.5-0.442,1.5-0.988v-8.293h8v-36h-8V148.822z"/>
		<path fill="#386A87" d="M899.764,154.75c0-0.545-1.453-0.986-2-0.986c-0.545,0-2,0.441-2,0.986v11.5h-6v45h6v10.452
			c0,0.546,1.455,0.985,2,0.985c0.547,0,2-0.441,2-0.985V211.25h7v-45h-7V154.75z"/>
	</g>
	<path fill="#798D93" d="M949.764,109.696c0,5.277-4.277,9.554-9.555,9.554h-88.895c-5.273,0-9.555-4.277-9.555-9.554V20.804
		c0.004-5.277,4.281-9.554,9.559-9.554h88.893c5.275,0,9.553,4.277,9.553,9.554V109.696L949.764,109.696z"/>
	<path fill="#798D93" d="M814.764,241.982c0,5.345-3.721,9.268-8.785,9.268h-89c-5.064,0-9.215-3.923-9.215-9.268v-87.988
		c0-5.344,4.15-9.744,9.215-9.744h89c5.064,0,8.785,4.4,8.785,9.744V241.982z"/>
	<path fill="#F2F2F2" d="M942.764,101.97c0,5.314-3.557,10.28-8.771,10.28h-88.451c-5.217,0-9.777-4.966-9.777-10.28V13.872
		c0-5.314,4.563-9.622,9.777-9.622h88.449c5.217,0,8.773,4.308,8.773,9.622V101.97z"/>
	<path fill="#F2F2F2" d="M808.764,235.441c0,5.342-4.424,8.809-9.684,8.809h-88.295c-5.258,0-10.021-3.467-10.021-8.809v-87.998
		c0-5.34,4.764-9.193,10.021-9.193h88.295c5.26,0,9.684,3.854,9.684,9.193V235.441z"/>
	<g>
		<g>
			<path fill="#46AACC" d="M876.652,77.494"/>
		</g>
		<rect x="861.764" y="76.25" fill="#46AACC" width="32" height="18"/>
		<rect x="875.764" y="55.25" fill="#46AACC" width="51" height="18"/>
		<rect x="863.764" y="34.25" fill="#46AACC" width="52" height="17"/>
		<rect x="846.764" y="13.25" fill="#46AACC" width="45" height="17"/>
	</g>
	<g>
		<path fill="#46AACC" d="M793.914,195.572c-0.262-0.176-0.307-0.207-0.598-0.088l-28.568,11.834l-25.139-19.975
			c-0.281-0.224-0.633-0.269-0.957-0.111l-27.846,13.129c-0.33,0.158-1.045,0.488-1.045,0.852v24.542
			c0,0.521,1.475,1.495,1.994,1.495h82.203c0.52,0-0.197-0.975-0.197-1.495v-29.399C793.764,196.04,794.176,195.747,793.914,195.572
			z"/>
		<g>
			<path fill="#46AACC" d="M739.879,184.549l25.213,19.988l29.592-11.992l-0.018-17.883c0-0.374-0.219-0.711-0.563-0.862
				c-0.342-0.149-0.738-0.086-1.016,0.164l-28.434,25.866l-25.053-33.264c-0.277-0.367-0.781-0.481-1.189-0.271l-27.617,14.127
				c-0.311,0.164-1.033,0.485-1.033,0.839v16.543l28.533-13.373C738.645,184.264,739.576,184.311,739.879,184.549z"/>
		</g>
	</g>
	<g>
		<g>
			<path fill="#386A87" d="M876.652,77.494"/>
		</g>
		<rect x="861.764" y="76.25" fill="#386A87" width="32" height="18"/>
		<rect x="875.764" y="55.25" fill="#386A87" width="51" height="18"/>
		<rect x="863.764" y="34.25" fill="#386A87" width="52" height="17"/>
		<rect x="846.764" y="13.25" fill="#386A87" width="45" height="17"/>
	</g>
	<g>
		<path fill="#386A87" d="M793.914,195.572c-0.262-0.176-0.307-0.207-0.598-0.088l-28.568,11.834l-25.139-19.975
			c-0.281-0.224-0.633-0.269-0.957-0.111l-27.846,13.129c-0.33,0.158-1.045,0.488-1.045,0.852v24.542
			c0,0.521,1.475,1.495,1.994,1.495h82.203c0.52,0-0.197-0.975-0.197-1.495v-29.399C793.764,196.04,794.176,195.747,793.914,195.572
			z"/>
		<g>
			<path fill="#386A87" d="M739.879,184.549l25.213,19.988l29.592-11.992l-0.018-17.883c0-0.374-0.219-0.711-0.563-0.862
				c-0.342-0.149-0.738-0.086-1.016,0.164l-28.434,25.866l-25.053-33.264c-0.277-0.367-0.781-0.481-1.189-0.271l-27.617,14.127
				c-0.311,0.164-1.033,0.485-1.033,0.839v16.543l28.533-13.373C738.645,184.264,739.576,184.311,739.879,184.549z"/>
		</g>
	</g>
</g>
</svg>
