<?xml version="1.0" encoding="utf-8"?>
<!-- Generator: Adobe Illustrator 16.0.0, SVG Export Plug-In . SVG Version: 6.00 Build 0)  -->
<!DOCTYPE svg PUBLIC "-//W3C//DTD SVG 1.1//EN" "http://www.w3.org/Graphics/SVG/1.1/DTD/svg11.dtd">
<svg version="1.1" xmlns="http://www.w3.org/2000/svg" xmlns:xlink="http://www.w3.org/1999/xlink" x="0px" y="0px" width="100px"
	 height="100px" viewBox="0 0 100 100" enable-background="new 0 0 100 100" xml:space="preserve">
<g id="Layer_1">
</g>
<g id="Layer_2" display="none">
</g>
<g id="Layer_3" display="none">
</g>
<g id="Layer_4">
	<path fill="#F9F9F9" d="M90.965,16.928c-1.208,0.748-2.437,1.48-3.616,2.273c-1.169,0.81-2.316,1.645-3.467,2.479
		c-1.132,0.86-2.317,1.662-3.396,2.589c-0.805,0.654-1.601,1.055-2.396,1.727C76.432,24.908,74.454,24,72.329,24h-40.88
		C25.635,24,19,29.279,19,35.095v40.878C19,81.787,25.635,85,31.449,85h40.88C78.144,85,80,81.787,80,75.973V35.095
		c0-1.698,1.023-3.298,0.309-4.719c0.727-0.861,2.169-1.725,2.88-2.604c0.869-1.086,2.161-2.111,3.056-3.182
		c0.897-1.071,1.977-2.142,2.859-3.238c0.914-1.062,1.903-2.143,2.809-3.229c0.907-1.079,1.831-2.203,2.698-3.346
		C93.363,15.469,92.17,16.174,90.965,16.928z M72.329,77h-40.88C29.905,77,26,77.517,26,75.973V35.095
		C26,33.549,29.905,31,31.449,31h40.046c-0.185,0-0.374,1-0.559,1.182c-0.994,1.027-1.978,2.394-2.946,3.445
		c-0.987,1.037-1.932,2.277-2.841,3.389c-0.91,1.109-1.871,2.256-2.727,3.417c-0.859,1.155-1.742,2.334-2.581,3.506
		c-0.829,1.182-1.626,2.404-2.425,3.608c-0.76,1.236-1.547,2.457-2.257,3.726c-0.69,1.282-1.437,2.533-2.063,3.861
		c-0.566,1.123-1.086,2.286-1.594,3.45c-0.385-0.367-0.766-0.738-1.154-1.104c-1.672-1.597-3.373-3.168-5.104-4.714
		c-1.717-1.556-3.485-3.068-5.267-4.568l-2.718-2.209c-0.449-0.372-0.926-0.72-1.389-1.08c-0.461-0.358-0.93-0.717-1.408-1.06
		c0.288,0.515,0.584,1.021,0.891,1.521c0.305,0.502,0.595,1.014,0.911,1.504l1.879,2.956c1.285,1.941,2.583,3.871,3.931,5.759
		c1.336,1.896,2.699,3.77,4.092,5.615c0.695,0.925,1.387,1.853,2.098,2.762l2.128,2.735l3.286,4.221l2.328-5.434
		c0.179-0.42,0.476-1.075,0.75-1.635c0.274-0.578,0.602-1.163,0.89-1.745c0.62-1.17,1.249-2.337,1.942-3.485
		c0.652-1.162,1.382-2.3,2.078-3.444l2.193-3.399c0.754-1.122,1.555-2.216,2.301-3.348c0.77-1.114,1.588-2.201,2.381-3.304
		c0.771-1.122,1.627-2.185,2.443-3.276c0.826-1.083,0.06-2.192,0.929-3.251C72.473,39.907,72,39.197,72,38.491v37.481
		C72,77.517,73.872,77,72.329,77z"/>
</g>
</svg>
