<?xml version="1.0" encoding="utf-8"?>
<!-- Generator: Adobe Illustrator 19.0.0, SVG Export Plug-In . SVG Version: 6.00 Build 0)  -->
<svg version="1.1" id="Layer_1" xmlns="http://www.w3.org/2000/svg" xmlns:xlink="http://www.w3.org/1999/xlink" x="0px" y="0px"
	 viewBox="0 0 595.3 841.9" style="enable-background:new 0 0 595.3 841.9;" xml:space="preserve">
<style type="text/css">
	.st0{fill-rule:evenodd;clip-rule:evenodd;fill:#3A3A37;}
</style>
<g>
	<path class="st0" d="M349.4,454.9h5.3v-51h-5.3V454.9L349.4,454.9z M292.9,427.5h21.6v-5.3h-21.6V427.5L292.9,427.5z M314.5,414.2
		h-21.6v5.3h21.6V414.2L314.5,414.2z M293.7,387.3l-0.2,0c-9.9,0.5-16.7,9.1-17.2,16.8c-0.2,2.6-0.1,9.9-0.1,19.9l0.1,9.5
		c0,4.7-3,8.3-7.6,8.3c-6.2,0-41.5,0.1-41.9,0.1l0,0h0c-3.9,0-4-3.5-4-3.7v-32.9c0-3.5,4.1-4.3,4.4-4.3h32.5v-5.3h-32.6
		c-2.1,0-9.6,2.3-9.6,9.6v32.9c0,2.3,1.7,9,9.3,9c0.4,0,37.7,0.2,43.9-0.1c6.6-0.3,10.2-5,10.9-13.6l-0.1-9.5
		c-0.1-7.9-0.1-16.9,0.1-19.5c0.4-5.4,5.4-11.5,12.2-11.9l0,0h91.4v-5.3H293.7L293.7,387.3z M284.3,404.7c-0.2,2.5-0.1,11.4,0,19.3
		l0.1,9.5c0,4.3-1,8.2-2.8,11.2c-2,3.3-7.3,5.1-10.7,5.1c-6.2,0-43.5,0.1-43.9,0.1c-8.7,0-12-7.1-12-11.6v-32.9
		c0-9.3,9.1-12.3,12.3-12.3h32.6v-5.3h-32.6c-2.4,0-6.6,0.9-10.3,3.6c-4.7,3.3-7.3,8.3-7.3,14v32.9c0,7,5.4,16.9,17.3,16.9l-0.1,0
		c1.5,0,36.3-0.1,42.6-0.1c12.6,0,20.3-9.9,20.3-21.6l-0.1-9.6c-0.1-7-0.1-16.6,0-18.9c0.1-1.4,1.8-4.2,4.6-4.5h91.1v-5.3h-91.3
		C288,395.6,284.5,401,284.3,404.7L284.3,404.7z M357.3,454.9h5.3v-51h-5.3V454.9L357.3,454.9z M282,454.8l43.5,0v-5.3h-37.8
		C287.7,449.5,284.7,453.2,282,454.8L282,454.8z M289.4,446.8h36.1v-5.3h-33.8C291.1,443.4,289.4,446.8,289.4,446.8L289.4,446.8z"/>
</g>
</svg>
