<?xml version="1.0" encoding="UTF-8" standalone="no"?>
<!-- Created with Inkscape (http://www.inkscape.org/) -->

<svg
   xmlns:dc="http://purl.org/dc/elements/1.1/"
   xmlns:cc="http://creativecommons.org/ns#"
   xmlns:rdf="http://www.w3.org/1999/02/22-rdf-syntax-ns#"
   xmlns:svg="http://www.w3.org/2000/svg"
   xmlns="http://www.w3.org/2000/svg"
   xmlns:sodipodi="http://sodipodi.sourceforge.net/DTD/sodipodi-0.dtd"
   xmlns:inkscape="http://www.inkscape.org/namespaces/inkscape"
   width="540"
   height="320"
   viewBox="0 0 540.00001 320.00001"
   id="svg3636"
   version="1.1"
   inkscape:version="0.91 r13725"
   sodipodi:docname="top-left.svg">
  <defs
     id="defs3638" />
  <sodipodi:namedview
     id="base"
     pagecolor="#ffffff"
     bordercolor="#666666"
     borderopacity="1.0"
     inkscape:pageopacity="0.0"
     inkscape:pageshadow="2"
     inkscape:zoom="22.627417"
     inkscape:cx="550.16218"
     inkscape:cy="329.86703"
     inkscape:document-units="px"
     inkscape:current-layer="layer1"
     showgrid="false"
     units="px"
     inkscape:window-width="1215"
     inkscape:window-height="696"
     inkscape:window-x="65"
     inkscape:window-y="24"
     inkscape:window-maximized="1" />
  <metadata
     id="metadata3641">
    <rdf:RDF>
      <cc:Work
         rdf:about="">
        <dc:format>image/svg+xml</dc:format>
        <dc:type
           rdf:resource="http://purl.org/dc/dcmitype/StillImage" />
        <dc:title></dc:title>
      </cc:Work>
    </rdf:RDF>
  </metadata>
  <g
     inkscape:label="Camada 1"
     inkscape:groupmode="layer"
     id="layer1"
     transform="translate(0,-732.36203)">
    <g
       id="g54"
       transform="matrix(1.25,0,0,-1.25,2.0859e-4,732.36343)">
      <path
         d="m 0,0 0,-248.69 63.52,81.909 93.867,42.283 86.28,61.813 86.28,20.808 L 425.121,0 0,0 Z"
         style="fill:#600202;fill-opacity:1;fill-rule:nonzero;stroke:none"
         id="path56"
         inkscape:connector-curvature="0" />
    </g>
    <g
       id="g58"
       transform="matrix(1.25,0,0,-1.25,2.0859e-4,732.36343)">
      <path
         d="M 0,0 0,-99.499 63.52,-167.049 120.408,0 0,0 Z"
         style="fill:#9b0d0d;fill-opacity:1;fill-rule:nonzero;stroke:none"
         id="path60"
         inkscape:connector-curvature="0" />
    </g>
    <g
       id="g62"
       transform="matrix(1.25,0,0,-1.25,150.5105,732.36343)">
      <path
         d="M 0,0 -35.354,-103.469 80.877,-93.047 123.259,-62.685 0,0 Z"
         style="fill:#d30f0f;fill-opacity:1;fill-rule:nonzero;stroke:none"
         id="path64"
         inkscape:connector-curvature="0" />
    </g>
    <g
       id="g66"
       transform="matrix(1.25,0,0,-1.25,375.4813,732.36343)">
      <path
         d="M 0,0 -56.718,-62.935 29.562,-42.002 28.276,0 0,0 Z"
         style="fill:#9b0d0d;fill-opacity:1;fill-rule:nonzero;stroke:none"
         id="path68"
         inkscape:connector-curvature="0" />
    </g>
    <g
       id="g70"
       transform="matrix(1.25,0,0,-1.25,2.0859e-4,974.12593)">
      <path
         d="M 0,0 0,-55.089 64,26.912 0,0 Z"
         style="fill:#d30f0f;fill-opacity:1;fill-rule:nonzero;stroke:none"
         id="path72"
         inkscape:connector-curvature="0" />
    </g>
  </g>
</svg>
